<svg width="101" height="50" id="Layer_1" data-name="Layer 1" xmlns="http://www.w3.org/2000/svg" viewBox="0 0 224.37 84.21"><defs><style>.cls-1,.cls-3{fill:#f60;}.cls-2,.cls-4{fill:#0072aa;}.cls-3,.cls-4{font-size:33.15px;}.cls-3,.cls-4,.cls-5,.cls-6{font-family:ErasITC-Bold, Eras Bold ITC;font-weight:700;}.cls-3{letter-spacing:-0.01em;}.cls-4{letter-spacing:-0.01em;}.cls-5{font-size:5.83px;letter-spacing:-0.01em;}.cls-5,.cls-6{fill:#303030;}.cls-6{font-size:5.83px;letter-spacing:-0.01em;}.cls-7{fill:#f46425;}</style></defs><title>1</title><path class="cls-1" d="M219.48,222.1c0-.61.09-1.14-.76-1.47-10-3.82-20-7.56-29.86-11.65a11.57,11.57,0,0,0-9.73,0c-9.82,4.08-19.81,7.78-29.74,11.62-.6.23-1,.44-.91,1.21.25,3.66.43,7.33.64,11,.33-3.26.54-6.52.72-9.78,0-.6,0-1.05.79-1.33,2.89-1.07,5.74-2.26,8.61-3.37,7.93-3.07,15.86-6.11,23.77-9.2a2.42,2.42,0,0,1,1.92,0c10.58,4.12,21.15,8.25,31.76,12.31a1.78,1.78,0,0,1,1.36,2c0,6.81-.11,13.63,0,20.44.07,3.94.19,7.87-.74,11.74-.3.26-.28.65-.37,1a41.36,41.36,0,0,1-9.82,16.87c-6.44,7-14.12,12.31-22.44,16.78a1.31,1.31,0,0,1-1.48,0c-2.55-1.47-5.16-2.85-7.68-4.37a77.35,77.35,0,0,1-14.81-11.29.87.87,0,0,0,.18.51c.87,1,1.7,2.08,2.63,3,5.69,5.9,12.66,10,19.8,13.82a1.28,1.28,0,0,0,1.36-.1,88.09,88.09,0,0,0,10.25-6.09c7.7-5.28,14.6-11.39,19.43-19.52A31.06,31.06,0,0,0,219,253.49c.3-.34.2-.76.23-1.15q.31-5.51.28-11C219.46,234.92,219.49,228.51,219.48,222.1ZM218,256.46a.5.5,0,0,0,.13,0,1.34,1.34,0,0,0,0,.2Z" transform="translate(-137.82 -207.89)"/><path class="cls-2" d="M150.63,257.69c3.69.27,7.62.27,11.52.79,3.21.42,5.46,2.48,7.8,4.42.18.15.39.35.3.62a.66.66,0,0,1-.7.37c-1.26,0-2.51,0-3.77-.09-7.88-.44-15.78-.73-23.58-2.12a2.18,2.18,0,0,1-1.83-2.53,2,2,0,0,1,2.26-1.85C145.22,257.4,147.81,257.55,150.63,257.69Z" transform="translate(-137.82 -207.89)"/><path class="cls-2" d="M201.91,241.54l4.88-.83a3.31,3.31,0,0,0,1.57-.59,1.88,1.88,0,0,0-.09-3.17,6.19,6.19,0,0,0-5.62-.22,2,2,0,0,0-1.2,1.84c0,.71-.38.93-1,1a16.88,16.88,0,0,1-3.62.32c-.69,0-1.11-.12-.54-.95a38.82,38.82,0,0,1,5.94-6.73,6.3,6.3,0,0,1,5.05-1.42c3,.2,4.64,1.53,5.45,4.31a46.1,46.1,0,0,1,1.4,5.15c.07.38.27.84-.42.86C209.75,241.26,205.84,241.39,201.91,241.54Z" transform="translate(-137.82 -207.89)"/><path class="cls-2" d="M143.66,248.81c.08,0,.21,0,.22-.06.43-2,1.78-2.11,3.53-2,4.88.27,9.77.28,15,.12-1.35,1.4-2.49,2.63-3.68,3.81-.39.38-1,.29-1.51.39-3,.61-6,1.35-9.12.95-1.61-.2-3-1-4.5-1.41-.31-.09-.25-.32-.18-.59s.49-.76.31-1.24Z" transform="translate(-137.82 -207.89)"/><path class="cls-2" d="M186.49,246.32a6.59,6.59,0,0,1-4.32,2.39A61.65,61.65,0,0,1,172,249.79c-4.12.24-8.25.41-12.58,1a27.37,27.37,0,0,1,3.6-3.74,1.11,1.11,0,0,1,.81-.17c7.33,0,14.66-.31,22-.57A4.64,4.64,0,0,1,186.49,246.32Z" transform="translate(-137.82 -207.89)"/><path class="cls-2" d="M174.34,258c.93,0,1.86,0,2.79,0s1.43.45,1.39,1.4-.1,1.86-.19,2.78-.58,1.17-1.34.73c-2.14-1.22-4.13-2.68-6.15-4.09-.17-.12-.36-.26-.27-.48a.59.59,0,0,1,.61-.3h3.16Z" transform="translate(-137.82 -207.89)"/><path class="cls-2" d="M209.23,263.38c-2.65.37-5.31.7-7.94,1.17-1,.18-1.42-.11-1.44-1.07a4.46,4.46,0,0,1,0-1,12,12,0,0,0-1.4-8.34,10,10,0,0,0-6.94-4.84c1.47-1.15,2.69-1.29,4-.57s2,2,2.84,3.58a6.23,6.23,0,0,0-1-2.55c-1.45-2.3-3.47-2.8-5.83-1.43a8.53,8.53,0,0,0-2.89,2.9c-2.74,4.32-3.63,9.16-3.9,14.14-.06,1.15-.49,1.53-1.53,1.49-.65,0-1.3,0-2,0-4.58-.26-9.16-.51-13.73-.8-9.4-.59-18.77-1.45-28.11-2.69-.37-.05-.74,0-.88-.49a.87.87,0,0,1,.42-1c.71-.42.7-1,.57-1.66a20.39,20.39,0,0,1-.34-4.61,11.35,11.35,0,0,1,1.18-5.17c.28-.51.55-.73,1.12-.4,1,.61,1.68.29,1.94-.87,0-.13.18-.23.27-.35l0,0c0-.76.62-1.3.79-2-.6-.28-1.3.08-1.9-.34a7.83,7.83,0,0,1,2.31-2.31,36,36,0,0,1,15-5.52,77.75,77.75,0,0,1,13.74-.45c5,.1,10.06.21,15.1.3a8.25,8.25,0,0,0,6.17-2.4c1.89-1.84,3.86-3.6,5.73-5.45a3,3,0,0,1,2.15-.91,19.47,19.47,0,0,1,6.12.89c1.14.34,2.28.72,3.42,1.09-3.46-2-7.28-2.61-11.15-2.89a77.16,77.16,0,0,0-18,.91A69.85,69.85,0,0,0,158.86,238a8.54,8.54,0,0,1-2.47.95,43,43,0,0,0-7.19,2.22c-2.42,1-4.8,2.1-6.47,4.19-3.31,4.15-5,8.8-3.81,14.17a2.12,2.12,0,0,1-.56,2.25c-1,1-.59,1.81.84,2,1.68.26,3.37.51,5.05.74a1.91,1.91,0,0,1,1.09.44,10.11,10.11,0,0,0,12,1.28,2.31,2.31,0,0,1,1.41-.17c6.79.6,13.6,1,20.41,1.29a5.2,5.2,0,0,1,3.43,1.34c5.15,4.37,12.56,3.28,15.83-2.21.4-.68.51-1.39,1.88-1.39a45.68,45.68,0,0,0,7.81-1.13,4.89,4.89,0,0,0,2.21-.53C209.93,263.14,209.56,263.34,209.23,263.38Zm-12.8,3.67a6.29,6.29,0,0,1-10.73-1,5.49,5.49,0,0,1-.28-3c0-.38.34-.39.59-.5a17.25,17.25,0,0,0,2.09-1c1.25-.78,1.32-1.63.26-2.64a6.83,6.83,0,0,0-1.21-1c-.74-.42-.51-1-.22-1.44s.66.13,1,.28c.54.26,1,.64,1.57.92.79.41,1.23.16,1.26-.75a13.47,13.47,0,0,0-.52-4.15A6.76,6.76,0,0,0,188,254a2.26,2.26,0,0,1,1.57-1.83,5.86,5.86,0,0,1,7.31,2.42C199.29,258.36,199.09,263.8,196.43,267.05Z" transform="translate(-137.82 -207.89)"/><path class="cls-2" d="M189,263.07a12.7,12.7,0,0,0-2.93,1.07c-.42.17-.39.44-.24.78a7.72,7.72,0,0,0,2.51,3c.4.3.62.26.78-.22a20.72,20.72,0,0,0,1-3.53C190.12,263.18,189.9,263,189,263.07Z" transform="translate(-137.82 -207.89)"/><path class="cls-2" d="M192.87,264.49c-.52-.68-1-.83-1.37.11s-.72,2.06-1.19,3-.12,1.15.67,1a6.62,6.62,0,0,0,2.9-.62c.32-.18.53-.33.36-.74A11.43,11.43,0,0,0,192.87,264.49Z" transform="translate(-137.82 -207.89)"/><path class="cls-2" d="M191.83,254.83c.13.72.29,1.43.49,2.13s.49.8,1.05.35a16.26,16.26,0,0,0,2.17-2.45c.26-.32.07-.48-.15-.69a5.82,5.82,0,0,0-3.24-1.52c-.36-.05-.67,0-.53.57S191.72,254.28,191.83,254.83Z" transform="translate(-137.82 -207.89)"/><path class="cls-2" d="M195.22,257.22c-1.64,2.32-1.32,3,1.51,3.42a2,2,0,0,1,.24,0c.52.1.71-.07.68-.63a10.42,10.42,0,0,0-1.22-4.47C196,256.19,195.58,256.7,195.22,257.22Z" transform="translate(-137.82 -207.89)"/><path class="cls-2" d="M194.74,262c-.75,0-1,.52-.78,1.17a14.14,14.14,0,0,0,1.43,3.34,5,5,0,0,0,1.37-1.87c.34-.77,1-1.74.5-2.36S195.61,261.92,194.74,262Z" transform="translate(-137.82 -207.89)"/><text class="cls-3" transform="translate(86.64 33.9)">DHAKA</text><text class="cls-4" transform="translate(86.64 67.73)">RENTAL</text><text class="cls-5" transform="translate(26.32 16.18) rotate(-21.12)">Dhaka</text><text class="cls-6" transform="matrix(0.93, 0.36, -0.36, 0.93, 48.59, 9.57)">Rental</text><polygon class="cls-7" points="19.71 15.43 20.33 14.22 20.92 15.44 22.26 15.65 21.28 16.59 21.49 17.93 20.3 17.29 19.09 17.91 19.33 16.57 18.36 15.62 19.71 15.43"/><polygon class="cls-7" points="70.64 15.43 71.25 14.22 71.84 15.44 73.18 15.65 72.2 16.59 72.42 17.93 71.22 17.29 70.01 17.91 70.25 16.57 69.29 15.62 70.64 15.43"/></svg>