<svg id="Layer_1" data-name="Layer 1" xmlns="http://www.w3.org/2000/svg" viewBox="0 0 500 500"><defs><style>.cls-1,.cls-3{fill:#f60;}.cls-2,.cls-4{fill:#0072aa;}.cls-3,.cls-4{font-size:63.52px;letter-spacing:-0.01em;}.cls-3,.cls-4,.cls-5,.cls-6{font-family:ErasITC-Bold, Eras Bold ITC;font-weight:700;}.cls-5{font-size:11.18px;letter-spacing:-0.01em;}.cls-5,.cls-6{fill:#303030;}.cls-6{font-size:11.18px;letter-spacing:-0.01em;}.cls-7{fill:#f46425;}</style></defs><title>11</title><path class="cls-1" d="M191.51,196.53c0-1.16.17-2.19-1.46-2.81-19.12-7.33-38.31-14.49-57.22-22.33-6.56-2.72-12.05-2.82-18.65-.07-18.83,7.84-38,14.93-57,22.27-1.16.45-1.86.85-1.75,2.33.47,7,.83,14.05,1.23,21.07.63-6.24,1-12.49,1.38-18.74.07-1.14.06-2,1.51-2.55,5.54-2,11-4.32,16.51-6.45,15.18-5.88,30.39-11.71,45.55-17.63a4.59,4.59,0,0,1,3.67,0c20.28,7.9,40.55,15.81,60.87,23.58,2.06.79,2.63,1.77,2.61,3.86-.09,13.05-.21,26.11,0,39.16.13,7.57.36,15.09-1.42,22.51-.58.49-.54,1.24-.72,1.88-3.47,12.41-10.17,22.92-18.82,32.32-12.33,13.41-27.05,23.6-43,32.18a2.56,2.56,0,0,1-2.83,0c-4.9-2.83-9.9-5.48-14.74-8.39A148.26,148.26,0,0,1,78.9,297.11a1.72,1.72,0,0,0,.34,1c1.66,2,3.26,4,5,5.82,10.92,11.31,24.27,19.14,38,26.49a2.46,2.46,0,0,0,2.6-.19,168.91,168.91,0,0,0,19.65-11.68c14.76-10.12,28-21.82,37.24-37.4,4.49-7.55,7.94-15.55,8.82-24.44.58-.65.4-1.46.44-2.21q.61-10.54.56-21.1C191.47,221.09,191.52,208.81,191.51,196.53Zm-2.92,65.86.23-.07c0,.14,0,.25,0,.4Z"/><path class="cls-2" d="M59.56,264.73c7.07.52,14.6.53,22.08,1.51,6.16.81,10.47,4.77,14.94,8.48.36.29.76.68.58,1.19a1.25,1.25,0,0,1-1.34.71c-2.41,0-4.82,0-7.22-.18-15.11-.85-30.25-1.38-45.2-4.05a4.17,4.17,0,0,1-3.5-4.86c.24-2.32,1.78-3.65,4.33-3.55C49.19,264.18,54.16,264.46,59.56,264.73Z"/><path class="cls-2" d="M157.84,233.79c3.12-.53,6.23-1.07,9.35-1.59a6.34,6.34,0,0,0,3-1.14A3.6,3.6,0,0,0,170,225c-3.46-2.11-7.18-1.76-10.76-.41A3.73,3.73,0,0,0,157,228.1c0,1.36-.73,1.77-2,2a32.37,32.37,0,0,1-6.94.63c-1.32-.08-2.14-.23-1-1.84A74.23,74.23,0,0,1,158.38,216c2.78-2.53,5.92-3,9.67-2.72,5.67.37,8.88,2.92,10.45,8.26a89.29,89.29,0,0,1,2.69,9.86c.12.72.51,1.6-.82,1.64Q169.11,233.37,157.84,233.79Z"/><path class="cls-2" d="M46.21,247.71c.14,0,.39,0,.41-.1.83-3.81,3.42-4.06,6.77-3.86,9.35.53,18.72.54,28.68.23-2.58,2.69-4.76,5.05-7,7.3-.74.74-1.91.56-2.89.76-5.77,1.16-11.49,2.59-17.5,1.82-3.07-.39-5.7-1.92-8.61-2.72-.59-.16-.48-.6-.35-1.11.2-.8.94-1.46.6-2.38Z"/><path class="cls-2" d="M128.29,242.94C126,246,123,246.85,120,247.53c-6.39,1.44-12.91,1.7-19.42,2.07-7.91.45-15.82.78-24.12,1.85a51.77,51.77,0,0,1,6.9-7.15,2.1,2.1,0,0,1,1.55-.34c14.06-.06,28.11-.59,42.16-1.1C127.35,242.85,127.63,242.9,128.29,242.94Z"/><path class="cls-2" d="M105,265.4c1.79,0,3.57,0,5.36,0s2.74.86,2.66,2.67-.19,3.57-.37,5.34-1.11,2.23-2.57,1.4c-4.1-2.34-7.91-5.14-11.79-7.84-.32-.23-.68-.5-.51-.93s.71-.56,1.17-.56c2,0,4,0,6,0Z"/><path class="cls-2" d="M171.87,275.64c-5.09.7-10.18,1.35-15.23,2.25-1.95.35-2.71-.21-2.75-2.06a9.5,9.5,0,0,1,.05-1.85,23.07,23.07,0,0,0-2.68-16A19.07,19.07,0,0,0,138,248.72c2.84-2.2,5.17-2.49,7.66-1.09s3.82,3.83,5.44,6.85a11.92,11.92,0,0,0-1.93-4.88c-2.78-4.4-6.66-5.37-11.17-2.74a16.37,16.37,0,0,0-5.55,5.55c-5.24,8.28-7,17.56-7.46,27.11-.12,2.19-1,2.92-2.94,2.85-1.24-.05-2.49,0-3.73-.08-8.78-.5-17.55-1-26.33-1.53-18-1.13-36-2.79-53.86-5.15-.7-.1-1.42-.09-1.69-.95a1.67,1.67,0,0,1,.81-2c1.36-.78,1.34-1.86,1.09-3.17a40.26,40.26,0,0,1-.66-8.83,21.78,21.78,0,0,1,2.27-9.91c.54-1,1.06-1.4,2.15-.76,2,1.15,3.2.55,3.7-1.68.06-.25.35-.44.53-.66l-.07.06c.06-1.44,1.17-2.48,1.51-3.86-1.15-.53-2.49.16-3.65-.66a15.24,15.24,0,0,1,4.44-4.43c8.71-5.94,18.61-9,28.83-10.57,8.67-1.36,17.54-1.05,26.33-.87,9.65.2,19.29.41,28.94.58a15.83,15.83,0,0,0,11.84-4.59c3.61-3.53,7.38-6.91,11-10.46a5.63,5.63,0,0,1,4.12-1.74,37.8,37.8,0,0,1,11.72,1.7c2.19.66,4.37,1.4,6.55,2.1-6.63-3.81-13.95-5-21.37-5.55A148,148,0,0,0,122,211.12c-16.48,2.64-32.21,7.49-46.71,15.91a15.44,15.44,0,0,1-4.73,1.83,81.68,81.68,0,0,0-13.78,4.26c-4.63,1.89-9.21,4-12.4,8-6.35,7.95-9.57,16.85-7.3,27.14A4.09,4.09,0,0,1,36,272.62c-1.88,1.91-1.13,3.46,1.61,3.87,3.23.49,6.45,1,9.69,1.41a3.8,3.8,0,0,1,2.09.84c7.09,5.91,14.77,6.67,22.94,2.46a4.5,4.5,0,0,1,2.71-.33c13,1.15,26.06,1.92,39.12,2.48a10,10,0,0,1,6.58,2.57c9.85,8.37,24.06,6.28,30.33-4.23.77-1.31,1-2.68,3.6-2.68,5,0,10-1.28,15-2.16,1.38-.25,2.92-.08,4.24-1C173.2,275.18,172.49,275.56,171.87,275.64Zm-24.54,7c-6,7.27-16,6.34-20.55-1.88-1-1.86-.58-3.78-.55-5.69,0-.73.66-.75,1.14-1a33.08,33.08,0,0,0,4-1.86c2.4-1.49,2.52-3.13.5-5.06a12.26,12.26,0,0,0-2.33-1.94c-1.41-.8-1-1.94-.41-2.76.72-1.06,1.26.25,1.83.53,1,.51,2,1.24,3,1.77,1.51.79,2.35.31,2.42-1.44a25.74,25.74,0,0,0-1-8,13.18,13.18,0,0,0-4.21,2.23,4.33,4.33,0,0,1,3-3.51,11.25,11.25,0,0,1,14,4.65C152.81,266,152.44,276.46,147.33,282.68Z"/><path class="cls-2" d="M133,275.06c-2,.27-3.77,1.29-5.62,2-.8.32-.75.83-.45,1.49a14.93,14.93,0,0,0,4.8,5.83c.77.57,1.2.49,1.5-.43a39.53,39.53,0,0,0,1.88-6.76C135.24,275.26,134.82,274.81,133,275.06Z"/><path class="cls-2" d="M140.52,277.77c-1-1.31-1.92-1.58-2.63.22s-1.38,3.93-2.28,5.79-.24,2.21,1.29,2a12.55,12.55,0,0,0,5.54-1.19c.63-.34,1-.62.7-1.41A22,22,0,0,0,140.52,277.77Z"/><path class="cls-2" d="M138.51,259.27c.26,1.36.57,2.73.94,4.07.32,1.16,1,1.53,2,.66a31.87,31.87,0,0,0,4.16-4.68c.51-.62.14-.93-.28-1.33a11.13,11.13,0,0,0-6.22-2.9c-.69-.11-1.28,0-1,1.09C138.23,257.11,138.31,258.2,138.51,259.27Z"/><path class="cls-2" d="M145,263.83c-3.14,4.45-2.53,5.82,2.9,6.56.15,0,.31,0,.46.05,1,.21,1.35-.12,1.31-1.2a20,20,0,0,0-2.35-8.56C146.45,261.87,145.71,262.83,145,263.83Z"/><path class="cls-2" d="M144.09,273c-1.44.09-1.88,1-1.49,2.26a26.48,26.48,0,0,0,2.75,6.39A9.63,9.63,0,0,0,148,278c.67-1.46,1.91-3.32,1-4.51S145.76,272.85,144.09,273Z"/><text class="cls-3" transform="translate(201.04 234.27)">DHAKA</text><text class="cls-4" transform="translate(201.04 299.11)">RENTAL</text><text class="cls-5" transform="translate(85.47 200.34) rotate(-21.12)">Dhaka</text><text class="cls-6" transform="translate(128.14 187.65) rotate(21.31)">Rental</text><polygon class="cls-7" points="72.78 198.88 73.96 196.55 75.09 198.9 77.66 199.3 75.78 201.1 76.19 203.68 73.9 202.44 71.58 203.63 72.05 201.07 70.2 199.23 72.78 198.88"/><polygon class="cls-7" points="170.37 198.88 171.55 196.55 172.68 198.9 175.25 199.3 173.37 201.1 173.78 203.68 171.49 202.44 169.17 203.63 169.64 201.07 167.79 199.23 170.37 198.88"/></svg>